HIERARCHY
ROOT Hips
{
	OFFSET -14.64140 90.27770 -84.91600
	CHANNELS 6 Xposition Yposition Zposition Zrotation Xrotation Yrotation
	JOINT Spine
	{
		OFFSET 0.00000 13.20850 -1.60436
		CHANNELS 3 Zrotation Xrotation Yrotation
		JOINT Spine1
		{
			OFFSET 0.00000 8.61716 0.00000
			CHANNELS 3 Zrotation Xrotation Yrotation
			JOINT Spine2
			{
				OFFSET 0.00000 8.61717 0.00000
				CHANNELS 3 Zrotation Xrotation Yrotation
				JOINT Spine3
				{
					OFFSET 0.00000 8.61717 0.00000
					CHANNELS 3 Zrotation Xrotation Yrotation
					JOINT Neck
					{
						OFFSET 0.00000 11.07920 1.10792
						CHANNELS 3 Zrotation Xrotation Yrotation
						JOINT Neck1
						{
							OFFSET 0.00000 7.08032 0.00000
							CHANNELS 3 Zrotation Xrotation Yrotation
							JOINT Head
							{
								OFFSET 0.00000 7.08031 0.00000
								CHANNELS 3 Zrotation Xrotation Yrotation
								End site
								{
									OFFSET 0.00000 0.00000 0.00000
								}
							}
						}
					}
					JOINT RightShoulder
					{
						OFFSET -0.01000 7.91373 5.19711
						CHANNELS 3 Zrotation Xrotation Yrotation
						JOINT RightArm
						{
							OFFSET -18.41580 0.00000 0.00000
							CHANNELS 3 Zrotation Xrotation Yrotation
							JOINT RightForeArm
							{
								OFFSET -29.11090 0.00000 0.00000
								CHANNELS 3 Zrotation Xrotation Yrotation
								JOINT RightHand
								{
									OFFSET -24.65040 0.00000 0.00000
									CHANNELS 3 Zrotation Xrotation Yrotation
									JOINT RightHandThumb1
									{
										OFFSET -5.35114 -0.85590 3.97906
										CHANNELS 3 Zrotation Xrotation Yrotation
										JOINT RightHandThumb2
										{
											OFFSET -4.52789 0.00000 0.00000
											CHANNELS 3 Zrotation Xrotation Yrotation
											JOINT RightHandThumb3
											{
												OFFSET -2.46976 0.00000 0.00000
												CHANNELS 3 Zrotation Xrotation Yrotation
												End site
												{
													OFFSET 0.00000 0.00000 0.00000
												}
											}
										}
									}
									JOINT RightHandIndex1
									{
										OFFSET -14.26970 0.00000 2.88139
										CHANNELS 3 Zrotation Xrotation Yrotation
										JOINT RightHandIndex2
										{
											OFFSET -5.48836 0.00000 0.00000
											CHANNELS 3 Zrotation Xrotation Yrotation
											JOINT RightHandIndex3
											{
												OFFSET -3.01859 0.00000 0.00000
												CHANNELS 3 Zrotation Xrotation Yrotation
												End site
												{
													OFFSET 0.00000 0.00000 0.00000
												}
											}
										}
									}
									JOINT RightHandMiddle1
									{
										OFFSET -14.26970 0.00000 -0.09147
										CHANNELS 3 Zrotation Xrotation Yrotation
										JOINT RightHandMiddle2
										{
											OFFSET -6.17441 0.00000 0.00000
											CHANNELS 3 Zrotation Xrotation Yrotation
											JOINT RightHandMiddle3
											{
												OFFSET -3.56743 0.00000 0.00000
												CHANNELS 3 Zrotation Xrotation Yrotation
												End site
												{
													OFFSET 0.00000 0.00000 0.00000
												}
											}
										}
									}
									JOINT RightHandRing1
									{
										OFFSET -12.69180 0.00000 -3.06433
										CHANNELS 3 Zrotation Xrotation Yrotation
										JOINT RightHandRing2
										{
											OFFSET -5.62556 0.00000 0.00000
											CHANNELS 3 Zrotation Xrotation Yrotation
											JOINT RightHandRing3
											{
												OFFSET -3.56744 0.00000 0.00000
												CHANNELS 3 Zrotation Xrotation Yrotation
												End site
												{
													OFFSET 0.00000 0.00000 0.00000
												}
											}
										}
									}
									JOINT RightHandPinky1
									{
										OFFSET -11.11390 0.00000 -6.03719
										CHANNELS 3 Zrotation Xrotation Yrotation
										JOINT RightHandPinky2
										{
											OFFSET -4.52789 0.00000 0.00000
											CHANNELS 3 Zrotation Xrotation Yrotation
											JOINT RightHandPinky3
											{
												OFFSET -2.46976 0.00000 0.00000
												CHANNELS 3 Zrotation Xrotation Yrotation
												End site
												{
													OFFSET 0.00000 0.00000 0.00000
												}
											}
										}
									}
								}
							}
						}
					}
					JOINT LeftShoulder
					{
						OFFSET 0.01000 7.91373 5.19711
						CHANNELS 3 Zrotation Xrotation Yrotation
						JOINT LeftArm
						{
							OFFSET 18.41580 0.00000 0.00000
							CHANNELS 3 Zrotation Xrotation Yrotation
							JOINT LeftForeArm
							{
								OFFSET 29.11090 0.00000 0.00000
								CHANNELS 3 Zrotation Xrotation Yrotation
								JOINT LeftHand
								{
									OFFSET 24.65040 0.00000 0.00000
									CHANNELS 3 Zrotation Xrotation Yrotation
									JOINT LeftHandThumb1
									{
										OFFSET 5.35114 -0.85590 3.97906
										CHANNELS 3 Zrotation Xrotation Yrotation
										JOINT LeftHandThumb2
										{
											OFFSET 4.52789 0.00000 0.00000
											CHANNELS 3 Zrotation Xrotation Yrotation
											JOINT LeftHandThumb3
											{
												OFFSET 2.46977 0.00000 0.00000
												CHANNELS 3 Zrotation Xrotation Yrotation
												End site
												{
													OFFSET 0.00000 0.00000 0.00000
												}
											}
										}
									}
									JOINT LeftHandIndex1
									{
										OFFSET 14.26970 0.00000 2.88139
										CHANNELS 3 Zrotation Xrotation Yrotation
										JOINT LeftHandIndex2
										{
											OFFSET 5.48836 0.00000 0.00000
											CHANNELS 3 Zrotation Xrotation Yrotation
											JOINT LeftHandIndex3
											{
												OFFSET 3.01859 0.00000 0.00000
												CHANNELS 3 Zrotation Xrotation Yrotation
												End site
												{
													OFFSET 0.00000 0.00000 0.00000
												}
											}
										}
									}
									JOINT LeftHandMiddle1
									{
										OFFSET 14.26970 0.00000 -0.09147
										CHANNELS 3 Zrotation Xrotation Yrotation
										JOINT LeftHandMiddle2
										{
											OFFSET 6.17440 0.00000 0.00000
											CHANNELS 3 Zrotation Xrotation Yrotation
											JOINT LeftHandMiddle3
											{
												OFFSET 3.56744 0.00000 0.00000
												CHANNELS 3 Zrotation Xrotation Yrotation
												End site
												{
													OFFSET 0.00000 0.00000 0.00000
												}
											}
										}
									}
									JOINT LeftHandRing1
									{
										OFFSET 12.69180 0.00000 -3.06433
										CHANNELS 3 Zrotation Xrotation Yrotation
										JOINT LeftHandRing2
										{
											OFFSET 5.62556 0.00000 0.00000
											CHANNELS 3 Zrotation Xrotation Yrotation
											JOINT LeftHandRing3
											{
												OFFSET 3.56744 0.00000 0.00000
												CHANNELS 3 Zrotation Xrotation Yrotation
												End site
												{
													OFFSET 0.00000 0.00000 0.00000
												}
											}
										}
									}
									JOINT LeftHandPinky1
									{
										OFFSET 11.11390 0.00000 -6.03719
										CHANNELS 3 Zrotation Xrotation Yrotation
										JOINT LeftHandPinky2
										{
											OFFSET 4.52789 0.00000 0.00000
											CHANNELS 3 Zrotation Xrotation Yrotation
											JOINT LeftHandPinky3
											{
												OFFSET 2.46976 0.00000 0.00000
												CHANNELS 3 Zrotation Xrotation Yrotation
												End site
												{
													OFFSET 0.00000 0.00000 0.00000
												}
											}
										}
									}
								}
							}
						}
					}
					JOINT pCube4
					{
						OFFSET 0.00000 10.91090 1.10792
						CHANNELS 3 Zrotation Xrotation Yrotation
						End site
						{
							OFFSET 0.00000 0.00000 0.00000
						}
					}
				}
			}
		}
	}
	JOINT RightUpLeg
	{
		OFFSET -9.98441 0.00000 0.00000
		CHANNELS 3 Zrotation Xrotation Yrotation
		JOINT RightLeg
		{
			OFFSET 0.00000 -42.11790 0.00000
			CHANNELS 3 Zrotation Xrotation Yrotation
			JOINT RightFoot
			{
				OFFSET 0.00000 -45.00020 -0.00001
				CHANNELS 3 Zrotation Xrotation Yrotation
				JOINT RightForeFoot
				{
					OFFSET 0.00000 -3.74820 0.00000
					CHANNELS 3 Zrotation Xrotation Yrotation
					JOINT RightToeBase
					{
						OFFSET 0.00000 0.06325 14.43120
						CHANNELS 3 Zrotation Xrotation Yrotation
						End site
						{
							OFFSET 0.00000 0.00000 0.00000
						}
					}
				}
			}
		}
	}
	JOINT LeftUpLeg
	{
		OFFSET 9.98441 0.00000 0.00000
		CHANNELS 3 Zrotation Xrotation Yrotation
		JOINT LeftLeg
		{
			OFFSET 0.00000 -42.11800 0.00000
			CHANNELS 3 Zrotation Xrotation Yrotation
			JOINT LeftFoot
			{
				OFFSET 0.00000 -45.00070 0.00000
				CHANNELS 3 Zrotation Xrotation Yrotation
				JOINT LeftForeFoot
				{
					OFFSET 0.00000 -3.74824 0.00000
					CHANNELS 3 Zrotation Xrotation Yrotation
					JOINT LeftToeBase
					{
						OFFSET 0.00000 0.06325 14.43110
						CHANNELS 3 Zrotation Xrotation Yrotation
						End site
						{
							OFFSET 0.00000 0.00000 0.00000
						}
					}
				}
			}
		}
	}
}
MOTION
Frames: 4
Frame Time: 0.050000
-0.045483834331693444 -0.022345725300394453 0.011015910764726723 -0.008335029508791185 -0.008253264435811649 -0.027970783804939878 -3.4601011171753346 -0.6235712798029287 -0.6158110819397735 -1.1091503320592735 3.805731699798461 0.38722440725929214 -1.3617232527448775 -1.9068174169207825 -0.9949570917207875 0.08678497661328585 0.48786921626716045 -0.8216918350209976 0.09833027994637214 12.465617121906003 0.36736438907563446 0.24298188782724867 -0.07683873429928445 -0.9725191150717633 0.33276181721477593 -14.972285124777253 -0.13192581087398766 -4.924121614188905 1.6351327908757307 -14.003651922496598 64.53575882362358 21.297257133307617 12.874026899735812 5.731719938675834 2.144545973102021 62.4173163411082 15.430459930240287 -0.199774927184953 -2.589118556482989 4.491123931563881 -0.0902086895701058 -1.6282476664370247 0.038898162253629874 0.013403229526930564 -56.21908877016046 0.01853642642340547 0.04383161648607105 -56.2677417992552 -38.75673785712474 -0.048370417584199916 -0.017998973379245668 7.490859933561648e-05 -0.034421686530083824 -0.01670039162285026 0.015905043577349433 0.025127292286577865 0.01878570397137315 -36.67461039854108 -0.03383711609553163 0.0023408408506219646 0.010763661374879916 0.014158101746305328 -0.04735793137794769 -0.015185265732424827 -0.047749512745637844 -0.03104251354157909 -19.760796574675123 0.0004507474835884811 0.046575019629227304 -0.03222433387328447 0.034310783943655346 -0.0018434763492477127 0.027488498159347563 0.01782792660496834 -0.007465373131886228 24.084801133289496 -0.034717717869458174 -0.027342687802084847 28.845826013478764 0.011218706266221097 0.005403792970748836 28.906084797245818 -0.03868469536404824 0.03085714692724206 5.393214055891114 1.1964278453017834 12.584651698356378 -70.12721740090188 28.0034870133241 -10.952745001850046 -44.79890609294523 3.0142283696271264 -80.32935016693277 -5.553266366915698 0.6605405994968745 -0.6692539244586252 -0.44381106890232863 0.07106384714836655 -8.121948631679846 -0.012633548798310263 0.00469240395068066 44.56555389617569 -0.03998893247742797 0.01583226389533604 44.5833156473985 12.445415174622257 -0.02553863160002068 0.024844713576329374 -0.03672052243267353 0.023161827607536233 0.019765365397789482 0.02983446666508349 0.04869970621274116 0.03541899548080395 11.148447412160317 -0.017689655657038002 0.0232339076072579 0.04141482216596582 0.0015088569828400043 -0.04764386714963676 0.0044736889056324084 -0.02394675543768136 0.04435110179087933 4.730188534664501 -0.02035271328811287 -0.015587405033785261 0.020377526050404066 0.030751340640305977 -0.020434184037374188 -0.02530632343164764 0.008658885157820338 -0.001997137293005929 -5.638994448266305 0.0036150110747106517 -0.015476249677334443 -6.748418820113004 -0.0391276102039699 -0.04474729593472619 -6.727985367095824 -0.003574984389966502 0.028963280887436885 0.030170110101671133 0.022397744575987935 0.004112766315519344 8.074488489626907 3.4929888191092484 -19.247923329560148 0.040083470097986997 10.373279524734656 0.052504160870768354 -5.630214382424212 -15.70673626811588 3.1453421824797974 0.007597512530140018 -0.010749944896772886 -0.0016678698343745764 0.04859055641019516 4.709656602022472 -0.0487710054967828 12.47473758025275 -8.198879527152235 6.881300198142269 0.03220632005968775 46.35061168187186 0.025513304835740172 -4.309108800068593 -14.752300701949613 -3.8643267942710695 -0.015597885050457132 -0.02485729800709119 0.019875460813492025 -0.0024344642012087167 -10.78793896699434 0.013358199257041504 
-0.044109368829431506 -0.004465362932420072 0.012435225630703704 -0.045182017748209916 -0.04300034566113527 -0.014969975406559019 -3.4112964791354616 -0.6071400321602058 -0.6627810879557899 -1.0828257623906283 3.7931025036293557 0.39501064880090897 -1.3785431469362324 -1.872203388849851 -0.9384918884715114 0.0666605394227123 0.45849988440549455 -0.8053850550863998 -0.027595943126028838 12.561725173722852 0.7289425378569118 0.27058752936755276 -0.05860156657732567 -0.09545025327950046 0.22438108822180677 -14.967388187702023 -0.019906663107146474 -4.864964432449107 1.64971866028602 -13.92006007146357 65.08051954813837 22.099770015684427 11.977268714910076 5.957435229691469 2.4662641118126096 62.739266702585454 15.537105031931365 -0.24577773363296943 -2.5119617723413485 4.510619201414037 -0.11750641232053419 -1.5809228736043295 0.04004476261673652 0.026737595988661367 -56.25905849890889 -0.0002736408744415529 -0.031150267159123377 -56.26314893078547 -38.72615202963911 -0.01542021932911104 -0.007702729520666679 -0.02129101047285038 0.042862584003528284 -0.006010437290939859 -0.04220091527163212 -0.0062753901849308255 -0.046891548095563555 -36.66246329225786 -0.040404627004254096 -0.00893054052259016 0.04739852463317098 -0.02935664250395019 0.029382639916540658 -0.020828395390686545 -0.02000952249496312 0.032541746464718725 -19.751313311490343 -0.04283602409201034 0.0027129979627424543 0.030540390331538984 -0.0018853909434431962 0.021353311745794995 0.00026805995269341105 -0.036221250248496636 0.013281797714700751 24.045903633139584 0.032527181140320535 0.04741065094962228 28.83804592958011 0.04760181144818323 -0.025038601666781568 28.84932439757722 0.02816941294900128 -0.0033662805140212398 5.638295659029355 1.174064370752454 12.57398988261162 -70.39946992734275 28.180635323610712 -11.001035391498348 -44.30908928324691 3.1116777378094156 -80.20461999780312 -6.175160480002801 0.5072487518175767 -0.6423458506524835 -0.4307935135017228 0.02416437243385699 -8.099869819154737 0.04587834533259738 -0.02414536998804506 44.59655522598227 -0.02887832657995798 0.009493407472555969 44.61183448167448 12.455122386261584 -0.02398727851611038 0.03211895115625982 -0.01603181430530273 0.01089224596648042 -0.008804747697023054 -0.03207444624177574 0.034315491488361924 0.009168813427968677 11.059858239476709 -0.03301701924186238 -0.03053423152074265 0.007504638595662992 0.031008401053156883 -0.012371236961868768 0.031551903988433605 0.0021159902087917295 -0.008823784695588798 4.760844473497638 0.0462348816038047 -0.040293367621047314 0.015002156350706645 -0.007438130794358569 -0.04770668256044625 -0.01421751420466772 -0.03571677053311475 -0.017273777786010604 -5.606357559760261 -0.02765779431157847 -0.023324006062243868 -6.758841922754814 0.03901740396835774 0.0014515690482151701 -6.753378945687002 -0.03204980291997181 0.0033516834530893645 0.01095429464928346 -0.027460113427802607 -0.03199589822816074 8.012197795907971 3.515041989271324 -19.187173655260498 -0.02192679937834208 10.44352696538452 -0.02691485820399363 -5.641959194223394 -15.618692028355127 3.1462898251020444 0.015819704101612302 -0.021424295977718305 -0.009424943824035128 0.006245836137427065 4.67624039603145 -0.03146109594031375 12.458502104494391 -8.250116116749005 6.839995750241797 -0.047482965303075234 46.36844702880542 -0.016246158673290913 -4.361098170161103 -14.761432117020748 -3.822856498289034 0.01759240294497549 -0.029437372003495808 0.04947850783140333 0.011369722026719362 -10.769441461590008 0.0038408966156281104 
-0.032287464917780145 0.030432686109683263 -0.03060910629403415 -0.021748979541956044 -0.019661270585367232 -0.016073643086172727 -3.311183609106284 -0.4770594824755664 -0.6462739791151465 -1.0602051067699796 3.7252002629588636 0.42652070694066935 -1.2999969409464716 -1.8752689097514272 -1.11295315504907 -0.029855778459605062 0.4747547141567759 -0.8702439507852475 -0.26524293793801007 12.53138140345015 1.0837344816160948 0.24163413005902182 -0.1355685240466723 0.9544446953601518 0.020831041910357593 -15.12138959746018 0.11878968838069597 -4.552148403965851 1.5525946279667868 -14.078988824453576 67.41053899058856 23.382659131500027 9.18496617963084 5.548039738075303 3.1772436683445435 60.17303656370539 16.478551870710792 -0.2637352504795991 -2.756272844159627 4.521601122392504 -0.08037978067906834 -1.5761332260142475 -0.0028363244242509134 0.009597223043543988 -56.267139015500106 -0.040837176638154025 0.010127338298688738 -56.24647384782127 -38.7936522911008 -0.02831492343412953 0.002961471814102883 -0.023246840260327778 -0.047776332884637354 -0.023306230930834865 -0.00483128351992967 -0.030333311736521453 0.007726005890654978 -36.71002489543008 0.01683495405500185 -0.027317964136051417 0.03128717319546841 -0.042005727244032176 0.019338501912029044 -0.024888513164465297 0.04677105181098275 0.04334540306608935 -19.77201331309588 0.04039296272941812 -0.0230606110642097 0.028731005367327988 0.023057112205128506 -0.005538807274238252 -0.016479139297301777 -0.01951267170362629 0.0030019722811337 24.086224809952256 -0.026839377808805357 0.04503529555284987 28.841331985849045 0.01149918422277647 -0.009062062226538003 28.871839189112706 0.04924971623781911 -0.03765922366324757 5.913485850774821 1.3322027955874443 12.730240628897942 -71.08570164924679 28.21105212108991 -10.805204608814753 -43.573819974212356 3.80346869244184 -80.00257179442737 -7.532370968499519 -0.2649747033980715 -0.19624954919813542 -0.5047758113335136 0.08716718606237787 -8.153633181859185 0.007120591074280121 0.007177240270461661 44.590424320608264 -0.022409771974021938 0.04626815663829032 44.539673992979424 12.420333883415477 0.03237398055007774 0.03133854877722284 -0.01581508602153907 0.022118904298947605 -0.04576074457085899 0.0009207717590987109 -0.014199975164910148 -0.01891706347386307 11.067547864414205 0.015010580767484124 0.011556465880852027 0.03422959964290715 -0.019728091948536846 -0.008195478463548981 -0.04412067180471073 0.009293991398767236 -0.0018407613273697225 4.743562404179739 0.031793585353158314 0.005008287435573447 -0.020702596790068452 0.016945956419936358 0.03492136255453283 -0.0011205440194998293 -0.002490640465003396 -0.04203880091141631 -5.644555295281607 0.03134692772916287 0.010781315909166707 -6.734567571133786 0.003608072259403784 -0.0206162067722542 -6.731429527500131 0.03514843462959753 -0.03721010719931698 0.0457988795297005 0.0049793711804664775 -0.04815688956362354 8.048432524017972 3.4668157042866254 -19.225779762209665 -0.014679568469058782 10.38246165734595 0.00743695471547417 -5.599320728018877 -15.668960249596593 3.172554883435064 -0.004535152329432042 -0.011108517655242903 -0.02942342215789765 -0.006809237247185229 4.698121450051872 -0.03739981345694669 12.483576209533496 -8.247068542151892 6.919441134789792 -0.04503347146705783 46.355160474489736 0.033087976967532184 -4.319376200394546 -14.74795019282565 -3.8844776346066205 -0.022205933813555782 0.03516200981947155 0.015556802024802701 -0.009665312974253297 -10.785174090822359 0.04280094173003407 
-0.005814467613196804 0.03952246431684693 0.024075855867656877 0.01175172594535326 0.013907179993175603 -0.02946121593974284 -3.184196929934235 -0.27327031848517147 -0.6961329082971801 -1.1135448955041802 3.7514831240084763 0.3456856593072365 -1.2599490568703648 -1.9431896349949918 -1.2181769638892117 -0.07107073811440126 0.5127507373172634 -0.8870918734416986 -0.42357358226144254 12.453052873646518 1.4340529497689516 0.13784809328842912 -0.22332891141896408 2.032095691890887 -0.13944993238575082 -15.1515488156729 0.20231043444743263 -4.144823059342403 1.4564818724239363 -14.289849153209715 70.20259826020914 25.166006145028238 5.935862711696285 4.755613982789365 3.6940682732699726 56.23147263969489 18.076100126239655 -0.18128292621635533 -3.1099728529659822 4.545884842852806 -0.14289276993931535 -1.5827128780447441 0.04678595174688814 0.04633093331111551 -56.213537733855176 -0.04377032292022689 -0.039223242186225055 -56.269216984528256 -38.766181346219824 -0.01909315241035124 0.013953904042856874 -0.04594783147263824 -0.0034300124855017617 0.02016369034988649 0.011596162535115825 0.04860885979715252 -0.02313876610902978 -36.68099472901273 -0.017555115219438054 0.0393656321874714 -0.02722063612723868 0.006388278717059014 -0.020884430937891208 -0.011495811831626212 0.0030444356142766762 0.02241444314767557 -19.795595699349935 0.018923490450466016 -0.028844574638904212 -0.0397824374125705 -0.009225946524396428 -0.019896754728152895 0.018921158890967137 0.03645708436768171 0.028950191567502895 24.074894035164128 0.047049156450010426 0.04733097931451216 28.913187597914003 -0.04132554522797676 -0.003080559562443816 28.88263820515331 -0.008755259383264873 0.013941442582394251 6.155074142432691 1.3221868255768612 12.868533841262423 -71.62991948257967 28.120490894108563 -10.660811633481138 -42.666253313902416 4.688651714459552 -79.2334985135883 -9.512751626204048 -1.5279288338016748 0.5909505142819773 -0.4385056833762755 0.024302875927168247 -8.085358019884007 0.001063191677833435 -0.03986543910398514 44.60205798858905 0.02986552346114751 0.04199428964069942 44.596329930726256 12.433159862598444 0.04369992544018985 -0.025599786548278387 0.030029220930952845 -0.01883464329204155 0.02845787718364855 0.024829196467435668 -0.03836952877085697 -0.017043537327918766 11.12269371123909 0.007385581535135529 0.038829167280227214 0.009198725662223744 -0.04320061534337362 -0.016777121692708726 -0.021845134974499567 0.041545635362270295 -0.01143028510352536 4.751998370883659 0.04194176020551806 0.01410855320006964 -0.04533440780682412 0.035223015725660126 0.0022426752139125066 0.014201179480136465 -0.024957715216342376 -0.04015763764383444 -5.592602301163871 0.03769960618914384 0.01754741496689461 -6.723417924113153 0.023032562657199534 0.0026853039544166724 -6.752311698986962 -0.0017569397209968658 0.027063646784560896 -0.02332447209532767 0.03527767481445367 0.02457295469217267 8.060516433752777 3.4793782848773294 -19.190197755787477 0.0009570970615777648 10.384636627716944 -0.009959722442676417 -5.639649474107256 -15.627363837668033 3.1549679753740443 -0.02618899592685144 -0.04414914214262384 -0.03631275802470298 -0.0063430513342612625 4.718985447632687 0.020697589284690128 12.457975711504915 -8.274586559227785 6.902807681289266 -0.047427650305630044 46.40571958309795 -0.004626159210457274 -4.332128172517404 -14.714910360149856 -3.8103643333316755 -0.015181028415091823 0.047344957667447334 -0.0312847937182805 0.031520271133925006 -10.705559419879876 -0.008576022808035275 
